<?xml version="1.0" standalone="no"?>
<!DOCTYPE svg PUBLIC "-//W3C//DTD SVG 20010904//EN"
 "http://www.w3.org/TR/2001/REC-SVG-20010904/DTD/svg10.dtd">
<svg version="1.0" xmlns="http://www.w3.org/2000/svg"
 width="700.000000pt" height="700.000000pt" viewBox="0 0 700.000000 700.000000"
 preserveAspectRatio="xMidYMid meet">
<metadata>
Created by potrace 1.14, written by Peter Selinger 2001-2017
</metadata>
<g transform="translate(0.000000,700.000000) scale(0.100000,-0.100000)"
fill="#000000" stroke="none">
<path d="M3320 6984 c-164 -29 -288 -78 -429 -172 -258 -170 -432 -451 -477
-768 -4 -27 -7 -812 -8 -1745 l-1 -1697 -44 -48 c-50 -55 -139 -173 -165 -219
-59 -105 -82 -149 -112 -221 -130 -314 -149 -703 -49 -1024 108 -344 307 -617
605 -825 153 -107 391 -204 595 -241 148 -28 402 -25 552 4 529 105 960 469
1146 967 29 78 63 200 73 259 3 21 8 48 11 60 12 50 11 364 -2 441 -54 310
-166 555 -358 778 l-62 72 -1 1685 c0 927 -4 1712 -8 1745 -56 463 -402 841
-860 942 -94 20 -311 24 -406 7z m355 -445 c119 -32 258 -123 336 -221 49 -62
111 -189 130 -268 11 -45 13 -395 14 -1848 1 -1735 1 -1794 19 -1808 74 -54
206 -204 262 -299 46 -78 108 -220 119 -275 1 -3 6 -30 13 -60 20 -97 22 -113
23 -220 0 -92 -6 -158 -26 -262 -17 -88 -99 -270 -167 -371 -52 -76 -177 -203
-258 -262 -245 -178 -567 -246 -865 -184 -317 66 -604 285 -744 569 -18 36
-37 73 -42 83 -16 29 -46 134 -64 222 -16 75 -24 322 -12 342 3 5 8 29 12 53
9 66 68 237 105 306 62 113 104 170 209 274 l104 105 2 1790 c2 1861 1 1822
42 1935 66 175 236 336 413 390 121 37 256 40 375 9z"/>
<path d="M3460 4370 c-76 -14 -146 -74 -168 -146 -7 -23 -10 -352 -11 -1027 0
-545 0 -1004 -1 -1019 0 -22 -8 -31 -47 -48 -287 -127 -447 -456 -368 -760 60
-231 249 -418 480 -475 72 -18 204 -23 265 -11 263 54 459 235 526 488 24 92
22 233 -5 332 -53 192 -187 348 -367 428 -42 18 -44 21 -44 61 -1 23 -1 485
-1 1026 -1 970 -1 985 -21 1025 -49 98 -136 144 -238 126z"/>
</g>
</svg>
